FILE "Loonies 8192 (NTSC) (r66) (Aftermarket) (Unl).bin" BINARY
  TRACK 01 MODE2/2352
    INDEX 01 00:00:00
  TRACK 02 AUDIO
    PREGAP 00:02:00
    INDEX 01 00:15:45
  TRACK 03 AUDIO
    INDEX 00 00:43:03
    INDEX 01 00:45:03
  TRACK 04 AUDIO
    INDEX 00 01:16:12
    INDEX 01 01:18:12
